<svg width="678" height="543" viewBox="0 0 678 543" fill="none" xmlns="http://www.w3.org/2000/svg">
<g clip-path="url(#clip0_15656_51172)">
<path d="M239.14 153.23C239.148 167.432 244.793 181.051 254.836 191.094C264.879 201.137 278.497 206.782 292.7 206.79C306.905 206.79 320.528 212.433 330.573 222.477C340.617 232.522 346.26 246.145 346.26 260.35C346.26 274.555 340.617 288.178 330.573 298.223C320.528 308.267 306.905 313.91 292.7 313.91H185.58C171.377 313.915 157.757 319.56 147.713 329.603C137.67 339.646 132.025 353.267 132.02 367.47V474.6C132.025 488.803 137.67 502.423 147.713 512.467C157.757 522.51 171.377 528.155 185.58 528.16H453.39C481.804 528.149 509.05 516.855 529.138 496.759C549.225 476.664 560.51 449.414 560.51 421V153.23C560.507 139.026 554.864 125.404 544.82 115.36C534.776 105.316 521.154 99.6726 506.95 99.6699H292.7C263.14 100.09 239.14 124.09 239.14 153.23Z" fill="#F9EBFF"/>
<path d="M532.91 43.5599C540.399 43.5599 546.47 37.4889 546.47 29.9999C546.47 22.511 540.399 16.4399 532.91 16.4399C525.421 16.4399 519.35 22.511 519.35 29.9999C519.35 37.4889 525.421 43.5599 532.91 43.5599Z" fill="white" stroke="#001E2B" stroke-miterlimit="10"/>
<path d="M524.67 40.7702C524.67 40.7702 541.82 35.0502 544.21 22.4302C547.13 26.4302 548.21 35.3202 541.82 40.1002C535.43 44.8802 529.34 43.2902 524.67 40.7702Z" fill="#023430" stroke="#001E2B" stroke-miterlimit="10"/>
<path d="M532.91 64.4198V51.7998" stroke="#001E2B" stroke-miterlimit="10"/>
<path d="M532.91 133.53V71.2002" stroke="#001E2B" stroke-miterlimit="10"/>
<path d="M88.78 295.39L101.94 306.82L114.96 318.25L98.48 323.96L82 329.55L85.46 312.4L88.78 295.39Z" fill="white" stroke="#001E2B" stroke-miterlimit="10"/>
<path d="M95.16 313.86L82 329.55L114.96 318.25L95.16 313.86Z" fill="#001E2B"/>
<path d="M95.16 313.86L88.78 295.39" stroke="#001E2B" stroke-miterlimit="10"/>
<path d="M355.76 266.69L249.31 317.98V357.72L355.76 409.15L462.34 357.72V317.98L355.76 266.69Z" fill="#FFE212"/>
<path d="M462.34 317.98L355.76 369.41L249.31 317.98L355.76 266.69L462.34 317.98Z" fill="white"/>
<path d="M355.76 266.69L249.31 317.98V357.72L355.76 409.15L462.34 357.72V317.98L355.76 266.69Z" stroke="#231F20" stroke-miterlimit="10"/>
<path d="M249.31 317.98L355.76 369.41V409.15" stroke="#231F20" stroke-miterlimit="10"/>
<path d="M355.76 369.41C355.76 369.41 458.34 320 462.34 318V357.74L438.82 369.17L455.04 321.59" fill="#001E2B"/>
<path d="M355.76 369.41C355.76 369.41 458.34 320 462.34 318V357.74L438.82 369.17L455.04 321.59" stroke="#001E2B" stroke-miterlimit="10"/>
<path d="M221.54 334.86L114.96 386.29V426.03L221.54 477.32L327.99 426.03V386.29L221.54 334.86Z" fill="#00ED64"/>
<path d="M327.99 386.29L221.54 437.59L114.96 386.29L221.54 334.86L327.99 386.29Z" fill="white"/>
<path d="M221.54 334.86L114.96 386.29V426.03L221.54 477.32L327.99 426.03V386.29L221.54 334.86Z" stroke="#231F20" stroke-miterlimit="10"/>
<path d="M114.96 386.29L221.54 437.59V477.32" stroke="#231F20" stroke-miterlimit="10"/>
<path d="M221.54 437.59C221.54 437.59 324.13 388.15 328.12 386.16V425.89L304.6 437.32L320.81 389.75" fill="#001E2B"/>
<path d="M221.54 437.59C221.54 437.59 324.13 388.15 328.12 386.16V425.89L304.6 437.32L320.81 389.75" stroke="#001E2B" stroke-miterlimit="10"/>
<path d="M490.65 334.86L384.2 386.29V426.03L490.65 477.32L597.23 426.03V386.29L490.65 334.86Z" fill="#00ED64"/>
<path d="M597.23 386.29L490.65 437.59L384.2 386.29L490.65 334.86L597.23 386.29Z" fill="white"/>
<path d="M490.65 334.86L384.2 386.29V426.03L490.65 477.32L597.23 426.03V386.29L490.65 334.86Z" stroke="#231F20" stroke-miterlimit="10"/>
<path d="M384.2 386.29L490.65 437.59V477.32" stroke="#231F20" stroke-miterlimit="10"/>
<path d="M490.65 437.59C490.65 437.59 593.25 388.15 597.23 386.16V425.89L573.71 437.32L589.92 389.75" fill="#001E2B"/>
<path d="M490.65 437.59C490.65 437.59 593.25 388.15 597.23 386.16V425.89L573.71 437.32L589.92 389.75" stroke="#001E2B" stroke-miterlimit="10"/>
<path d="M355.76 399.45L249.31 450.88V490.61L355.76 541.91L462.34 490.61V450.88L355.76 399.45Z" fill="#FFE212"/>
<path d="M462.34 450.88L355.76 502.18L249.31 450.88L355.76 399.45L462.34 450.88Z" fill="white"/>
<path d="M355.76 399.45L249.31 450.88V490.61L355.76 541.91L462.34 490.61V450.88L355.76 399.45Z" stroke="#231F20" stroke-miterlimit="10"/>
<path d="M249.31 450.88L355.76 502.18V541.91" stroke="#231F20" stroke-miterlimit="10"/>
<path d="M355.76 502.18C355.76 502.18 458.34 452.74 462.34 450.75V490.48L438.82 501.91L455.04 454.33" fill="#001E2B"/>
<path d="M355.76 502.18C355.76 502.18 458.34 452.74 462.34 450.75V490.48L438.82 501.91L455.04 454.33" stroke="#001E2B" stroke-miterlimit="10"/>
<path d="M355.76 475.73C387.025 475.73 412.37 464.604 412.37 450.88C412.37 437.156 387.025 426.03 355.76 426.03C324.495 426.03 299.15 437.156 299.15 450.88C299.15 464.604 324.495 475.73 355.76 475.73Z" fill="#FFC010"/>
<path d="M221.54 411.14C252.805 411.14 278.15 400.014 278.15 386.29C278.15 372.566 252.805 361.44 221.54 361.44C190.275 361.44 164.93 372.566 164.93 386.29C164.93 400.014 190.275 411.14 221.54 411.14Z" fill="#00C954"/>
<path d="M490.65 411.14C521.915 411.14 547.26 400.014 547.26 386.29C547.26 372.566 521.915 361.44 490.65 361.44C459.385 361.44 434.04 372.566 434.04 386.29C434.04 400.014 459.385 411.14 490.65 411.14Z" fill="#00C954"/>
<path d="M193.9 0.5V244.49H423.14V80.1L343.4 0.5H193.9Z" fill="white" stroke="#231F20" stroke-miterlimit="10"/>
<path d="M423.14 80.1L343.4 0.5V80.1H423.14Z" fill="white" stroke="#231F20" stroke-linejoin="round"/>
<path d="M352.31 80.1001L346.73 97.6501L423.14 80.1001H352.31Z" fill="#001E2B"/>
<path d="M223.67 22.8301V266.82H452.78V102.43L373.17 22.8301H223.67Z" fill="white" stroke="#231F20" stroke-miterlimit="10"/>
<path d="M452.78 102.43L373.17 22.8301V102.43H452.78Z" fill="white" stroke="#231F20" stroke-linejoin="round"/>
<path d="M381.94 102.43L376.49 119.97L452.78 102.43H381.94Z" fill="#001E2B"/>
<path d="M253.43 45.1499V289.15H482.54V124.76L402.94 45.1499H253.43Z" fill="white" stroke="#231F20" stroke-miterlimit="10"/>
<path d="M482.54 124.76L402.94 45.1499V124.76H482.54Z" fill="white" stroke="#231F20" stroke-linejoin="round"/>
<path d="M411.71 124.76L406.26 142.3L482.54 124.76H411.71Z" fill="#001E2B"/>
<path d="M355.76 255.66V448.62" stroke="#001E2B" stroke-miterlimit="10" stroke-dasharray="2 2"/>
<path d="M490.65 182.3C504.049 195.692 514.679 211.593 521.931 229.095C529.183 246.596 532.916 265.355 532.916 284.3C532.916 303.244 529.183 322.003 521.931 339.505C514.679 357.007 504.049 372.908 490.65 386.3" stroke="#001E2B" stroke-miterlimit="10" stroke-dasharray="2 2"/>
<path d="M221.54 120C204.037 137.478 190.151 158.235 180.677 181.083C171.203 203.932 166.327 228.425 166.327 253.16C166.327 277.895 171.203 302.388 180.677 325.237C190.151 348.085 204.037 368.842 221.54 386.32" stroke="#001E2B" stroke-miterlimit="10" stroke-dasharray="2 2"/>
<path d="M427.79 255.66H293.44C289.391 255.639 285.514 254.021 282.652 251.158C279.789 248.296 278.171 244.419 278.15 240.37V236H442.94V240.38C442.945 244.412 441.355 248.282 438.516 251.145C435.678 254.008 431.822 255.631 427.79 255.66V255.66Z" fill="#001E2B" stroke="#001E2B" stroke-miterlimit="10"/>
<path d="M429.79 249.14H291.34C287.85 249.14 284.503 247.757 282.031 245.295C279.559 242.832 278.163 239.49 278.15 236V236C278.155 232.505 279.547 229.156 282.02 226.686C284.493 224.217 287.845 222.83 291.34 222.83H429.65C433.14 222.838 436.484 224.228 438.95 226.697C441.417 229.165 442.805 232.511 442.81 236V236C442.841 237.724 442.526 239.437 441.884 241.037C441.242 242.637 440.286 244.093 439.073 245.317C437.859 246.542 436.412 247.511 434.818 248.168C433.224 248.824 431.514 249.155 429.79 249.14V249.14Z" fill="#FFE212" stroke="#231F20" stroke-miterlimit="10"/>
<path d="M551.78 181.37H343.4C339.355 181.347 335.482 179.729 332.622 176.869C329.761 174.008 328.144 170.135 328.12 166.09V161.7H566.93V166.09C566.945 168.09 566.564 170.073 565.809 171.925C565.054 173.777 563.941 175.461 562.533 176.881C561.125 178.301 559.45 179.429 557.605 180.199C555.759 180.97 553.78 181.368 551.78 181.37V181.37Z" fill="#001E2B" stroke="#001E2B" stroke-miterlimit="10"/>
<path d="M553.78 175H341.41C337.922 174.992 334.579 173.603 332.113 171.137C329.647 168.67 328.258 165.328 328.25 161.84C328.258 158.353 329.647 155.011 332.114 152.547C334.58 150.082 337.923 148.695 341.41 148.69H553.78C557.264 148.7 560.603 150.089 563.067 152.553C565.531 155.017 566.919 158.356 566.93 161.84V161.84C566.922 165.326 565.534 168.667 563.07 171.133C560.606 173.599 557.266 174.989 553.78 175Z" fill="#B1FF05" stroke="#231F20" stroke-miterlimit="10"/>
<path d="M354.7 120H161.74C157.695 119.976 153.822 118.359 150.961 115.498C148.101 112.638 146.484 108.765 146.46 104.72V100.3H369.98V104.69C369.984 106.699 369.592 108.689 368.825 110.546C368.059 112.404 366.934 114.092 365.515 115.514C364.096 116.936 362.41 118.064 360.554 118.834C358.699 119.604 356.709 120 354.7 120Z" fill="#001E2B" stroke="#001E2B" stroke-miterlimit="10"/>
<path d="M356.83 113.59H159.61C156.125 113.582 152.785 112.194 150.32 109.729C147.856 107.265 146.468 103.925 146.46 100.44V100.44C146.468 96.9537 147.856 93.6125 150.32 91.1465C152.784 88.6806 156.124 87.2903 159.61 87.2798H356.69C360.178 87.2877 363.52 88.6767 365.987 91.143C368.453 93.6093 369.842 96.952 369.85 100.44V100.44C369.861 102.159 369.532 103.863 368.883 105.454C368.234 107.046 367.277 108.494 366.068 109.716C364.858 110.937 363.42 111.908 361.835 112.573C360.25 113.238 358.549 113.583 356.83 113.59V113.59Z" fill="#00ED64" stroke="#231F20" stroke-miterlimit="10"/>
<path d="M482.55 289.01H253.44V301.5H482.55V289.01Z" fill="#001E2B" stroke="#001E2B" stroke-miterlimit="10"/>
<path d="M253.44 266.82H223.67V279.31H253.44V266.82Z" fill="#001E2B" stroke="#001E2B" stroke-miterlimit="10"/>
<path d="M223.67 244.49H193.9V256.98H223.67V244.49Z" fill="#001E2B" stroke="#001E2B" stroke-miterlimit="10"/>
<path d="M163.07 100.44H353.37" stroke="#001E2B" stroke-miterlimit="10" stroke-dasharray="2 2"/>
<path d="M344.73 161.83H550.32" stroke="#001E2B" stroke-miterlimit="10" stroke-dasharray="2 2"/>
<path d="M295.3 237.05H425.8" stroke="#001E2B" stroke-miterlimit="10" stroke-dasharray="2 2"/>
</g>
<defs>
<clipPath id="clip0_15656_51172">
<rect width="516.39" height="542.47" fill="white" transform="translate(81)"/>
</clipPath>
</defs>
</svg>
