<?xml version="1.0" encoding="UTF-8" standalone="no"?>
<svg
   width="513.38416"
   height="408.89142"
   viewBox="0 0 513.38416 408.89142"
   fill="none"
   version="1.1"
   id="svg314"
   sodipodi:docname="mission.svg"
   inkscape:version="1.2.1 (9c6d41e4, 2022-07-14)"
   inkscape:dataloss="true"
   xmlns:inkscape="http://www.inkscape.org/namespaces/inkscape"
   xmlns:sodipodi="http://sodipodi.sourceforge.net/DTD/sodipodi-0.dtd"
   xmlns="http://www.w3.org/2000/svg"
   xmlns:svg="http://www.w3.org/2000/svg">
  <defs
     id="defs318" />
  <sodipodi:namedview
     id="namedview316"
     pagecolor="#ffffff"
     bordercolor="#000000"
     borderopacity="0.25"
     inkscape:showpageshadow="2"
     inkscape:pageopacity="0.0"
     inkscape:pagecheckerboard="0"
     inkscape:deskcolor="#d1d1d1"
     showgrid="false"
     inkscape:zoom="1.9424718"
     inkscape:cx="368.60252"
     inkscape:cy="268.98717"
     inkscape:window-width="1428"
     inkscape:window-height="775"
     inkscape:window-x="0"
     inkscape:window-y="25"
     inkscape:window-maximized="0"
     inkscape:current-layer="svg314" />
  <path
     d="m 79.915889,229.25 v 77.4"
     stroke="#001e2b"
     stroke-width="0.5"
     stroke-miterlimit="10"
     stroke-dasharray="2, 2"
     id="path182" />
  <path
     d="m 371.01589,72.45 -134.8,233.5 177.8,102.6 99.1,-171.5 -26.1,-97.6 z"
     fill="#ffffff"
     stroke="#231f20"
     stroke-width="0.5"
     stroke-miterlimit="10"
     id="path184" />
  <path
     d="m 513.11589,237.05 -26.1,-97.6 -35.7,61.9 z"
     fill="#ffffff"
     stroke="#231f20"
     stroke-width="0.5"
     stroke-miterlimit="10"
     stroke-linejoin="round"
     id="path186" />
  <path
     d="m 481.21589,149.55 -107,-61.8 -123.9,214.6 159.3,91.9 93.9,-162.8 -52.2,-30.1 z"
     fill="#ffeea9"
     stroke="#001e2b"
     stroke-width="0.5"
     stroke-miterlimit="10"
     id="path188" />
  <path
     d="m 458.11589,205.25 -12.1,11.1 67.1,20.7 z"
     fill="#001e2b"
     id="path190" />
  <path
     d="m 463.91589,179.35 -86.8,-50.1 c -1.7,-1 -2.3,-3.1 -1.3,-4.8 l 0.2,-0.4 c 1,-1.7 3.1,-2.3 4.8,-1.3 l 86.9,50.1 z"
     fill="#ffeea9"
     stroke="#001e2b"
     stroke-width="0.5"
     stroke-miterlimit="10"
     id="path192" />
  <path
     d="m 430.61589,198.05 -69.9,-40.4 c -1.7,-1 -2.3,-3.1 -1.3,-4.8 l 0.2,-0.4 c 1,-1.7 3.1,-2.3 4.8,-1.3 l 69.9,40.4 c 1.7,1 2.3,3.1 1.3,4.8 l -0.2,0.4 c -1,1.6 -3.1,2.2 -4.8,1.3 z"
     fill="#ffeea9"
     stroke="#001e2b"
     stroke-width="0.5"
     stroke-miterlimit="10"
     id="path194" />
  <path
     d="m 455.81589,254.75 -113.4,-65.5 c -1.7,-1 -2.3,-3.1 -1.3,-4.8 l 0.2,-0.4 c 1,-1.7 3.1,-2.3 4.8,-1.3 l 113.4,65.5 c 1.7,1 2.3,3.1 1.3,4.8 l -0.2,0.4 c -1,1.7 -3.1,2.3 -4.8,1.3 z"
     fill="#ffeea9"
     stroke="#001e2b"
     stroke-width="0.5"
     stroke-miterlimit="10"
     id="path196" />
  <path
     d="m 419.31589,318.05 -113.4,-65.5 c -1.7,-1 -2.3,-3.1 -1.3,-4.8 l 0.2,-0.4 c 1,-1.7 3.1,-2.3 4.8,-1.3 l 113.4,65.5 c 1.7,1 2.3,3.1 1.3,4.8 l -0.2,0.4 c -1,1.7 -3.2,2.3 -4.8,1.3 z"
     fill="#ffeea9"
     stroke="#001e2b"
     stroke-width="0.5"
     stroke-miterlimit="10"
     id="path198" />
  <path
     d="m 437.51589,286.45 -113.4,-65.5 c -1.7,-1 -2.3,-3.1 -1.3,-4.8 l 0.2,-0.4 c 1,-1.7 3.1,-2.3 4.8,-1.3 l 113.4,65.5 c 1.7,1 2.3,3.1 1.3,4.8 l -0.2,0.4 c -0.9,1.7 -3.1,2.2 -4.8,1.3 z"
     fill="#ffeea9"
     stroke="#001e2b"
     stroke-width="0.5"
     stroke-miterlimit="10"
     id="path200" />
  <path
     d="m 401.01589,349.75 -113.4,-65.5 c -1.7,-1 -2.3,-3.1 -1.3,-4.8 l 0.2,-0.4 c 1,-1.7 3.1,-2.3 4.8,-1.3 l 113.4,65.5 c 1.7,1 2.3,3.1 1.3,4.8 l -0.2,0.4 c -1,1.7 -3.1,2.2 -4.8,1.3 z"
     fill="#ffeea9"
     stroke="#001e2b"
     stroke-width="0.5"
     stroke-miterlimit="10"
     id="path202" />
  <path
     d="m 255.11589,20.75 -69.7,260.4 198.3,53.1 51.3,-191.4 -50.5,-87.4 z"
     fill="#ffffff"
     stroke="#231f20"
     stroke-width="0.5"
     stroke-miterlimit="10"
     id="path204" />
  <path
     d="m 435.01589,142.85 -50.5,-87.4 -18.4,69 z"
     fill="#ffffff"
     stroke="#231f20"
     stroke-width="0.5"
     stroke-miterlimit="10"
     stroke-linejoin="round"
     id="path206" />
  <path
     d="m 198.41589,273.85 64,-238.9 118.8,31.8999 -15.5,57.7001 58.3,15.7 -48.5,181 z"
     fill="#b1ff05"
     id="path208" />
  <path
     d="m 262.51589,35.2499 118.4,31.7 -15.3,57.3001 -0.1,0.5 0.5,0.1 57.8,15.5 -48.4,180.6 -176.7,-47.3 z m -0.3,-0.6 -64.1,239.3001 177.6,47.6 48.6,-181.6 -58.3,-15.6 15.5,-57.8001 z"
     fill="#00222f"
     id="path210" />
  <path
     d="m 373.71589,126.45 -8.9,13.9 70.2,2.5 z"
     fill="#001e2b"
     id="path212" />
  <path
     d="m 372.61589,99.95 -96.9,-25.9999 c -1.9,-0.5 -3,-2.4 -2.5,-4.3 l 0.1,-0.4 c 0.5,-1.9 2.4,-3 4.3,-2.5 l 96.9,25.9999 z"
     fill="#00ed64"
     stroke="#001e2b"
     stroke-width="0.5"
     stroke-miterlimit="10"
     id="path214" />
  <path
     d="m 345.21589,126.55 -78,-20.9 c -1.9,-0.5 -3,-2.4 -2.5,-4.3 l 0.1,-0.4 c 0.5,-1.9 2.4,-3 4.3,-2.5 l 78,20.9 c 1.9,0.5 3,2.4 2.5,4.3 l -0.1,0.4 c -0.5,1.9 -2.4,3 -4.3,2.5 z"
     fill="#00ed64"
     stroke="#001e2b"
     stroke-width="0.5"
     stroke-miterlimit="10"
     id="path216" />
  <path
     d="m 384.31589,174.85 -126.5,-33.9 c -1.9,-0.5 -3,-2.4 -2.5,-4.3 l 0.1,-0.4 c 0.5,-1.9 2.4,-3 4.3,-2.5 l 126.5,33.9 c 1.9,0.5 3,2.4 2.5,4.3 l -0.1,0.4 c -0.5,1.9 -2.5,3 -4.3,2.5 z"
     fill="#00ed64"
     stroke="#001e2b"
     stroke-width="0.5"
     stroke-miterlimit="10"
     id="path218" />
  <path
     d="m 365.31589,245.45 -126.5,-33.9 c -1.9,-0.5 -3,-2.4 -2.5,-4.3 l 0.1,-0.4 c 0.5,-1.9 2.4,-3 4.3,-2.5 l 126.6,33.9 c 1.9,0.5 3,2.4 2.5,4.3 l -0.1,0.4 c -0.6,1.9 -2.5,3 -4.4,2.5 z"
     fill="#00ed64"
     stroke="#001e2b"
     stroke-width="0.5"
     stroke-miterlimit="10"
     id="path220" />
  <path
     d="m 374.81589,210.15 -126.5,-33.9 c -1.9,-0.5 -3,-2.4 -2.5,-4.3 l 0.1,-0.4 c 0.5,-1.9 2.4,-3 4.3,-2.5 l 126.5,33.9 c 1.9,0.5 3,2.4 2.5,4.3 l -0.1,0.4 c -0.5,1.9 -2.4,3 -4.3,2.5 z"
     fill="#00ed64"
     stroke="#001e2b"
     stroke-width="0.5"
     stroke-miterlimit="10"
     id="path222" />
  <path
     d="m 355.91589,280.75 -126.5,-33.9 c -1.9,-0.5 -3,-2.4 -2.5,-4.3 l 0.1,-0.4 c 0.5,-1.9 2.4,-3 4.3,-2.5 l 126.5,33.9 c 1.9,0.5 3,2.4 2.5,4.3 l -0.1,0.4 c -0.5,1.9 -2.4,3 -4.3,2.5 z"
     fill="#00ed64"
     stroke="#001e2b"
     stroke-width="0.5"
     stroke-miterlimit="10"
     id="path224" />
  <path
     d="m 132.41589,0.25 v 269.5 h 205.4 V 71.65 l -71.4,-71.4 z"
     fill="#ffffff"
     stroke="#231f20"
     stroke-width="0.5"
     stroke-miterlimit="10"
     id="path226" />
  <path
     d="m 337.81589,71.65 -71.4,-71.4 v 71.4 z"
     fill="#ffffff"
     stroke="#231f20"
     stroke-width="0.5"
     stroke-miterlimit="10"
     stroke-linejoin="round"
     id="path228" />
  <path
     d="m 266.41589,11.8501 h -123.5 V 259.55 h 183.9 V 71.6501 h -60.4 z"
     fill="#ffc010"
     stroke="#001e2b"
     stroke-width="0.5"
     stroke-miterlimit="10"
     id="path230" />
  <path
     d="m 274.31589,71.6499 -5,15.7001 68.5,-15.7001 z"
     fill="#001e2b"
     id="path232" />
  <path
     d="m 266.41589,46.25 h -100.3 c -1.9,0 -3.5,-1.6 -3.5,-3.5 v -0.5 c 0,-1.9 1.6,-3.5 3.5,-3.5 h 100.3 z"
     fill="#ffeea9"
     stroke="#001e2b"
     stroke-width="0.5"
     stroke-miterlimit="10"
     id="path234" />
  <path
     d="m 246.91589,79.05 h -80.8 c -1.9,0 -3.5,-1.6 -3.5,-3.5 v -0.5 c 0,-1.9 1.6,-3.5 3.5,-3.5 h 80.8 c 1.9,0 3.5,1.6 3.5,3.5 v 0.5 c 0,2 -1.6,3.5 -3.5,3.5 z"
     fill="#ffeea9"
     stroke="#001e2b"
     stroke-width="0.5"
     stroke-miterlimit="10"
     id="path236" />
  <path
     d="m 297.11589,115.65 h -131 c -1.9,0 -3.5,-1.6 -3.5,-3.5 v -0.5 c 0,-1.9 1.6,-3.5 3.5,-3.5 h 131 c 1.9,0 3.5,1.6 3.5,3.5 v 0.5 c 0,1.9 -1.6,3.5 -3.5,3.5 z"
     fill="#ffeea9"
     stroke="#001e2b"
     stroke-width="0.5"
     stroke-miterlimit="10"
     id="path238" />
  <path
     d="m 297.11589,188.75 h -131 c -1.9,0 -3.5,-1.6 -3.5,-3.5 v -0.5 c 0,-1.9 1.6,-3.5 3.5,-3.5 h 131 c 1.9,0 3.5,1.6 3.5,3.5 v 0.5 c 0,1.9 -1.6,3.5 -3.5,3.5 z"
     fill="#ffeea9"
     stroke="#001e2b"
     stroke-width="0.5"
     stroke-miterlimit="10"
     id="path240" />
  <path
     d="m 235.31589,152.15 h -69.2 c -1.9,0 -3.5,-1.6 -3.5,-3.5 v -0.4 c 0,-1.9 1.6,-3.5 3.5,-3.5 h 69.2 c 1.9,0 3.5,1.6 3.5,3.5 v 0.5 c 0.1,1.9 -1.5,3.4 -3.5,3.4 z"
     fill="#ffeea9"
     stroke="#001e2b"
     stroke-width="0.5"
     stroke-miterlimit="10"
     id="path242" />
  <path
     d="m 297.11589,152.15 h -37.1 c -1.9,0 -3.5,-1.6 -3.5,-3.5 v -0.4 c 0,-1.9 1.6,-3.5 3.5,-3.5 h 37.1 c 1.9,0 3.5,1.6 3.5,3.5 v 0.5 c 0,1.9 -1.6,3.4 -3.5,3.4 z"
     fill="#ffeea9"
     stroke="#001e2b"
     stroke-width="0.5"
     stroke-miterlimit="10"
     id="path244" />
  <path
     d="m 203.21589,225.25 h -37.1 c -1.9,0 -3.5,-1.6 -3.5,-3.5 v -0.5 c 0,-1.9 1.6,-3.5 3.5,-3.5 h 37.1 c 1.9,0 3.5,1.6 3.5,3.5 v 0.5 c 0,2 -1.6,3.5 -3.5,3.5 z"
     fill="#001e2b"
     stroke="#001e2b"
     stroke-width="0.5"
     stroke-miterlimit="10"
     id="path246" />
  <path
     d="m 297.11589,225.25 h -73.1 c -1.9,0 -3.5,-1.6 -3.5,-3.5 v -0.5 c 0,-1.9 1.6,-3.5 3.5,-3.5 h 73.1 c 1.9,0 3.5,1.6 3.5,3.5 v 0.5 c 0,2 -1.6,3.5 -3.5,3.5 z"
     fill="#001e2b"
     stroke="#001e2b"
     stroke-width="0.5"
     stroke-miterlimit="10"
     id="path248" />
  <path
     d="m 497.11589,30.9499 c 6.296,0 11.4,-5.104 11.4,-11.4 0,-6.296 -5.104,-11.4 -11.4,-11.4 -6.296,0 -11.4,5.104 -11.4,11.4 0,6.296 5.104,11.4 11.4,11.4 z"
     fill="#ffffff"
     stroke="#001e2b"
     stroke-width="0.5"
     stroke-miterlimit="10"
     id="path284" />
  <path
     d="m 504.21589,10.5498 c 0,0 -1,15.1 -10.7,19.8 3.8,1.5 11.4,0.5 13.9,-5.7 2.5,-6.2 -0.2,-10.9 -3.2,-14.1 z"
     fill="#001e2b"
     stroke="#001e2b"
     stroke-width="0.5"
     stroke-miterlimit="10"
     id="path286" />
  <path
     d="m 479.61589,121.95 c 0.3,-0.2 0.6,-0.4 0.8,-0.6"
     stroke="#001e2b"
     stroke-width="0.5"
     stroke-miterlimit="10"
     id="path288" />
  <path
     d="m 482.01589,120.15 c 11.2,-9.4 12.9,-26.4 0.6,-43.0999 -14,-18.6 -11.9,-34.5001 -3.1,-42.5001"
     stroke="#001e2b"
     stroke-width="0.5"
     stroke-miterlimit="10"
     stroke-dasharray="1.99, 1.99"
     id="path290" />
  <path
     d="m 480.21589,33.9501 c 0.3,-0.2 0.5,-0.4 0.8,-0.6"
     stroke="#001e2b"
     stroke-width="0.5"
     stroke-miterlimit="10"
     id="path292" />
  <path
     d="m 79.915889,321.15 7.3,12.7 7.4,12.7 h -14.7 -14.7 l 7.4,-12.7 z"
     fill="#ffffff"
     stroke="#001e2b"
     stroke-width="0.5"
     stroke-miterlimit="10"
     id="path294" />
  <path
     d="m 79.915889,337.65 -14.7,8.9 h 29.4 z"
     fill="#001e2b"
     id="path296" />
  <path
     d="m 79.915889,337.65 v -16.5"
     stroke="#001e2b"
     stroke-width="0.5"
     stroke-miterlimit="10"
     id="path298" />
  <path
     d="m 132.41589,219.55 66.9,-28.3 9.9,-24.4 -34.2,-80.7 -36.5,15.4 -6.1,-14.3 z"
     fill="#001e2b"
     id="path300" />
  <path
     d="m 0.31598898,150.85 9.90000002,-24.4 130.299901,-55.2 34.2,80.7 -9.8,24.4 -130.400001,55.2 z"
     fill="#b1ff05"
     stroke="#001e2b"
     stroke-width="0.5"
     stroke-miterlimit="10"
     id="path302" />
  <path
     d="M 130.72689,95.605 0.32768898,150.814 34.521889,231.577 164.92089,176.368 Z"
     fill="#b1ff05"
     stroke="#001e2b"
     stroke-width="0.5"
     stroke-miterlimit="10"
     id="path304" />
  <path
     d="m 140.51589,71.25 -9.8,24.4"
     stroke="#001e2b"
     stroke-width="0.75"
     stroke-miterlimit="10"
     id="path306" />
  <path
     d="m 92.515889,167.45 5.9,14 -14.6,6.2 -5.9,-14 c -5.8,-0.6 -11.1,-4.2 -13.6,-10 -3.6,-8.4 0.4,-18.1 8.8,-21.7 8.4,-3.6 18.1,0.4 21.7,8.8 2.4,5.8 1.3,12.1 -2.3,16.7 z"
     fill="#ffffff"
     stroke="#00222f"
     stroke-miterlimit="10"
     id="path308" />
  <path
     d="m 71.115889,160.75 c 2.4,5.8 7.8,9.4 13.6,10 l 5.9,14 -6.8,2.9 -5.9,-14 c -5.8,-0.6 -11.1,-4.2 -13.6,-10 -3.6,-8.4 0.4,-18.1 8.8,-21.7 1.2,-0.5 2.4,-0.8 3.6,-1.1 -6.2,4.5 -8.7,12.7 -5.6,19.9 z"
     fill="#001e2b"
     id="path310" />
  <path
     d="m 88.415889,49.75 c -9.5,-22.4 -35.3,-32.9 -57.8,-23.4 -22.3999,9.5 -32.8999,35.4 -23.3999,57.8 l 19.2999,45.5 c 1,2.3 5.7,2.4 10.6,0.4 4.9,-2.1 8.1,-5.6 7.1,-7.9 l -19.3,-45.5 c -5.3,-12.6 0.6,-27.2 13.2,-32.5 12.6,-5.3 27.2,0.5 32.6,13.1 l 19.3,45.5 c 1,2.3 5.7,2.4 10.600001,0.4 4.9,-2.1 8.1,-5.6 7.1,-7.9 z"
     fill="#b1ff05"
     stroke="#001e2b"
     stroke-width="0.5"
     stroke-miterlimit="10"
     id="path312" />
</svg>
